<?xml version="1.0" encoding="UTF-8"?>
<svg width="1400pt" version="1.1" xmlns="http://www.w3.org/2000/svg" height="650pt" viewBox="0 0 1400 650" xmlns:xlink="http://www.w3.org/1999/xlink">
 <defs>
  <clipPath id="Clip0">
   <path d="M0 0 L100.5 0 L100.5 64.75 L0 64.75 L0 0 Z" transform="translate(38.5, 317)"/>
  </clipPath>
  <path id="GlArialMT97" d="M4.04297 9.36031 C4.04297 9.36031 3.55469 9.77531 3.10297 9.94625 C3.10297 9.94625 2.65141 10.1172 2.13375 10.1172 C2.13375 10.1172 1.27937 10.1172 0.820312 9.69969 C0.820312 9.69969 0.361406 9.28219 0.361406 8.63281 C0.361406 8.63281 0.361406 8.25188 0.534687 7.93703 C0.534687 7.93703 0.707969 7.62203 0.98875 7.43172 C0.98875 7.43172 1.26953 7.24125 1.62109 7.14359 C1.62109 7.14359 1.87984 7.07516 2.40234 7.01172 C2.40234 7.01172 3.46687 6.88469 3.96969 6.70891 C3.96969 6.70891 3.97469 6.52828 3.97469 6.47953 C3.97469 6.47953 3.97469 5.94234 3.72562 5.72266 C3.72562 5.72266 3.38875 5.42484 2.72469 5.42484 C2.72469 5.42484 2.10453 5.42484 1.80906 5.64219 C1.80906 5.64219 1.51375 5.85938 1.37203 6.41109 L0.512656 6.29391 C0.512656 6.29391 0.629844 5.74219 0.898438 5.40281 C0.898438 5.40281 1.16703 5.06344 1.67484 4.88031 C1.67484 4.88031 2.18266 4.69719 2.85156 4.69719 C2.85156 4.69719 3.51562 4.69719 3.93063 4.85344 C3.93063 4.85344 4.34578 5.00969 4.54109 5.24656 C4.54109 5.24656 4.73641 5.48344 4.81453 5.84469 C4.81453 5.84469 4.85844 6.06937 4.85844 6.65531 L4.85844 7.82719 C4.85844 7.82719 4.85844 9.05266 4.91453 9.3775 C4.91453 9.3775 4.97078 9.70219 5.13672 10 L4.21875 10 C4.21875 10 4.08203 9.72656 4.04297 9.36031 L4.04297 9.36031 Z M3.96969 7.3975 C3.96969 7.3975 3.49125 7.59281 2.53422 7.72953 C2.53422 7.72953 1.99219 7.80766 1.7675 7.90531 C1.7675 7.90531 1.54297 8.00297 1.42094 8.19094 C1.42094 8.19094 1.29891 8.37891 1.29891 8.60844 C1.29891 8.60844 1.29891 8.96 1.565 9.19438 C1.565 9.19438 1.83109 9.42875 2.34375 9.42875 C2.34375 9.42875 2.85156 9.42875 3.24703 9.20656 C3.24703 9.20656 3.64266 8.98438 3.82812 8.59859 C3.82812 8.59859 3.96969 8.30078 3.96969 7.71969 L3.96969 7.3975 Z"/>
  <path id="GlArialMT110" d="M0.659219 10 L0.659219 4.81438 L1.45016 4.81438 L1.45016 5.55172 C1.45016 5.55172 2.02156 4.69719 3.10062 4.69719 C3.10062 4.69719 3.56937 4.69719 3.96234 4.86578 C3.96234 4.86578 4.35547 5.03422 4.55078 5.30766 C4.55078 5.30766 4.74609 5.58109 4.82422 5.95703 C4.82422 5.95703 4.87312 6.20109 4.87312 6.81156 L4.87312 10 L3.99422 10 L3.99422 6.84563 C3.99422 6.84563 3.99422 6.30859 3.89156 6.0425 C3.89156 6.0425 3.78906 5.77641 3.52781 5.61766 C3.52781 5.61766 3.26656 5.45891 2.915 5.45891 C2.915 5.45891 2.35359 5.45891 1.94578 5.81547 C1.94578 5.81547 1.53812 6.17188 1.53812 7.16797 L1.53812 10 L0.659219 10 Z"/>
  <path id="GlArialMT111" d="M0.332031 7.40719 C0.332031 7.40719 0.332031 5.96672 1.13281 5.27344 C1.13281 5.27344 1.80172 4.69719 2.76375 4.69719 C2.76375 4.69719 3.83297 4.69719 4.51172 5.39797 C4.51172 5.39797 5.19047 6.09859 5.19047 7.33391 C5.19047 7.33391 5.19047 8.335 4.89016 8.90875 C4.89016 8.90875 4.58984 9.48234 4.01609 9.79984 C4.01609 9.79984 3.44234 10.1172 2.76375 10.1172 C2.76375 10.1172 1.67484 10.1172 1.00344 9.41891 C1.00344 9.41891 0.332031 8.72063 0.332031 7.40719 L0.332031 7.40719 Z M1.23531 7.40719 C1.23531 7.40719 1.23531 8.40328 1.66984 8.89891 C1.66984 8.89891 2.10453 9.39453 2.76375 9.39453 C2.76375 9.39453 3.41797 9.39453 3.8525 8.89656 C3.8525 8.89656 4.28719 8.39844 4.28719 7.37797 C4.28719 7.37797 4.28719 6.41594 3.85016 5.92047 C3.85016 5.92047 3.41312 5.42484 2.76375 5.42484 C2.76375 5.42484 2.10453 5.42484 1.66984 5.91797 C1.66984 5.91797 1.23531 6.41109 1.23531 7.40719 Z"/>
  <path id="GlArialMT121" d="M0.620156 11.997 L0.5225 11.1719 C0.5225 11.1719 0.810625 11.25 1.02547 11.25 C1.02547 11.25 1.31844 11.25 1.49422 11.1523 C1.49422 11.1523 1.67 11.0547 1.78219 10.8789 C1.78219 10.8789 1.86531 10.747 2.05078 10.2247 C2.05078 10.2247 2.07516 10.1514 2.12891 10.0098 L0.161094 4.81438 L1.10844 4.81438 L2.1875 7.81734 C2.1875 7.81734 2.3975 8.38859 2.56344 9.01859 C2.56344 9.01859 2.71484 8.41313 2.92484 7.83688 L4.03328 4.81438 L4.91219 4.81438 L2.93953 10.088 C2.93953 10.088 2.62203 10.9423 2.44625 11.2647 C2.44625 11.2647 2.21188 11.6992 1.90906 11.9019 C1.90906 11.9019 1.60641 12.1045 1.18656 12.1045 C1.18656 12.1045 0.932656 12.1045 0.620156 11.997 Z"/>
  <path id="GlArialMT109" d="M0.659219 10 L0.659219 4.81438 L1.44531 4.81438 L1.44531 5.54203 C1.44531 5.54203 1.68953 5.16109 2.09469 4.92922 C2.09469 4.92922 2.5 4.69719 3.01766 4.69719 C3.01766 4.69719 3.59375 4.69719 3.96234 4.93656 C3.96234 4.93656 4.33109 5.17578 4.4825 5.60547 C4.4825 5.60547 5.09766 4.69719 6.08406 4.69719 C6.08406 4.69719 6.85547 4.69719 7.27047 5.12453 C7.27047 5.12453 7.68562 5.55172 7.68562 6.44047 L7.68562 10 L6.81156 10 L6.81156 6.73344 C6.81156 6.73344 6.81156 6.20609 6.72609 5.97422 C6.72609 5.97422 6.64062 5.74219 6.41594 5.60062 C6.41594 5.60062 6.19141 5.45891 5.88875 5.45891 C5.88875 5.45891 5.34187 5.45891 4.98047 5.82281 C4.98047 5.82281 4.61922 6.18656 4.61922 6.98734 L4.61922 10 L3.74031 10 L3.74031 6.63078 C3.74031 6.63078 3.74031 6.04484 3.52547 5.75188 C3.52547 5.75188 3.31062 5.45891 2.82234 5.45891 C2.82234 5.45891 2.45125 5.45891 2.13625 5.65422 C2.13625 5.65422 1.82125 5.84953 1.67969 6.22562 C1.67969 6.22562 1.53812 6.60156 1.53812 7.30953 L1.53812 10 L0.659219 10 Z"/>
  <path id="GlArialMT117" d="M4.05766 10 L4.05766 9.23828 C4.05766 9.23828 3.45219 10.1172 2.41219 10.1172 C2.41219 10.1172 1.95312 10.1172 1.55516 9.94141 C1.55516 9.94141 1.15719 9.76562 0.964375 9.49953 C0.964375 9.49953 0.771563 9.23344 0.693438 8.84766 C0.693438 8.84766 0.639687 8.58891 0.639687 8.02734 L0.639687 4.81438 L1.51859 4.81438 L1.51859 7.69047 C1.51859 7.69047 1.51859 8.37891 1.57234 8.61812 C1.57234 8.61812 1.65531 8.96484 1.92375 9.16266 C1.92375 9.16266 2.19234 9.36031 2.58797 9.36031 C2.58797 9.36031 2.98344 9.36031 3.33 9.15766 C3.33 9.15766 3.67672 8.955 3.82078 8.60594 C3.82078 8.60594 3.96484 8.25688 3.96484 7.59281 L3.96484 4.81438 L4.84375 4.81438 L4.84375 10 L4.05766 10 Z"/>
  <path id="GlArialMT115" d="M0.307656 8.45219 L1.17672 8.31547 C1.17672 8.31547 1.25 8.83781 1.58438 9.11625 C1.58438 9.11625 1.91891 9.39453 2.51953 9.39453 C2.51953 9.39453 3.125 9.39453 3.41797 9.14797 C3.41797 9.14797 3.71094 8.90141 3.71094 8.56938 C3.71094 8.56938 3.71094 8.27141 3.45219 8.10063 C3.45219 8.10063 3.27156 7.98344 2.55375 7.80266 C2.55375 7.80266 1.58688 7.55859 1.21328 7.38047 C1.21328 7.38047 0.839844 7.20219 0.646875 6.88719 C0.646875 6.88719 0.454063 6.57219 0.454063 6.19141 C0.454063 6.19141 0.454063 5.84469 0.612812 5.54937 C0.612812 5.54937 0.771563 5.25391 1.045 5.05859 C1.045 5.05859 1.25 4.90719 1.60391 4.80219 C1.60391 4.80219 1.95797 4.69719 2.36328 4.69719 C2.36328 4.69719 2.97359 4.69719 3.435 4.87297 C3.435 4.87297 3.89656 5.04875 4.11625 5.34906 C4.11625 5.34906 4.33594 5.64938 4.41891 6.15234 L3.55953 6.26953 C3.55953 6.26953 3.50094 5.86906 3.22016 5.64453 C3.22016 5.64453 2.93953 5.41984 2.42672 5.41984 C2.42672 5.41984 1.82125 5.41984 1.5625 5.62016 C1.5625 5.62016 1.30375 5.82031 1.30375 6.08891 C1.30375 6.08891 1.30375 6.25969 1.41109 6.39641 C1.41109 6.39641 1.51859 6.53812 1.74812 6.63078 C1.74812 6.63078 1.87984 6.67969 2.52438 6.85547 C2.52438 6.85547 3.45703 7.10453 3.82563 7.26328 C3.82563 7.26328 4.19437 7.42188 4.40422 7.72469 C4.40422 7.72469 4.61422 8.02734 4.61422 8.47656 C4.61422 8.47656 4.61422 8.91594 4.35781 9.30422 C4.35781 9.30422 4.10156 9.69234 3.61813 9.90484 C3.61813 9.90484 3.13484 10.1172 2.52438 10.1172 C2.52438 10.1172 1.51375 10.1172 0.983906 9.69734 C0.983906 9.69734 0.454063 9.27734 0.307656 8.45219 Z"/>
  <clipPath id="Clip1">
   <path d="M0 0 L100.5 0 L100.5 64.75 L0 64.75 L0 0 Z" transform="translate(192.5, 314)"/>
  </clipPath>
  <path id="GlArialMT112" d="M0.659219 11.9873 L0.659219 4.81438 L1.46 4.81438 L1.46 5.48828 C1.46 5.48828 1.74313 5.09281 2.09953 4.895 C2.09953 4.895 2.45609 4.69719 2.96391 4.69719 C2.96391 4.69719 3.62797 4.69719 4.13578 5.03906 C4.13578 5.03906 4.64359 5.38078 4.90234 6.00344 C4.90234 6.00344 5.16109 6.62594 5.16109 7.36813 C5.16109 7.36813 5.16109 8.16406 4.87547 8.80125 C4.87547 8.80125 4.58984 9.43844 4.04531 9.77781 C4.04531 9.77781 3.50094 10.1172 2.90047 10.1172 C2.90047 10.1172 2.46094 10.1172 2.11172 9.93172 C2.11172 9.93172 1.76266 9.74609 1.53812 9.46281 L1.53812 11.9873 L0.659219 11.9873 L0.659219 11.9873 Z M1.45516 7.43656 C1.45516 7.43656 1.45516 8.4375 1.86031 8.91609 C1.86031 8.91609 2.26562 9.39453 2.84187 9.39453 C2.84187 9.39453 3.42781 9.39453 3.84516 8.89891 C3.84516 8.89891 4.26266 8.40328 4.26266 7.36328 C4.26266 7.36328 4.26266 6.37203 3.855 5.87891 C3.855 5.87891 3.44734 5.38578 2.88094 5.38578 C2.88094 5.38578 2.31937 5.38578 1.88719 5.91062 C1.88719 5.91062 1.45516 6.43547 1.45516 7.43656 Z"/>
  <path id="GlArialMT101" d="M4.20906 8.33 L5.11719 8.44234 C5.11719 8.44234 4.90234 9.23828 4.32125 9.67781 C4.32125 9.67781 3.74031 10.1172 2.83688 10.1172 C2.83688 10.1172 1.69922 10.1172 1.03266 9.41656 C1.03266 9.41656 0.36625 8.71578 0.36625 7.45109 C0.36625 7.45109 0.36625 6.1425 1.04 5.41984 C1.04 5.41984 1.71391 4.69719 2.78812 4.69719 C2.78812 4.69719 3.82812 4.69719 4.48734 5.40531 C4.48734 5.40531 5.14656 6.11328 5.14656 7.3975 C5.14656 7.3975 5.14656 7.47562 5.14156 7.63187 L1.27438 7.63187 C1.27438 7.63187 1.32328 8.48625 1.75781 8.94047 C1.75781 8.94047 2.19234 9.39453 2.84187 9.39453 C2.84187 9.39453 3.32516 9.39453 3.66688 9.14062 C3.66688 9.14062 4.00875 8.88672 4.20906 8.33 L4.20906 8.33 Z M1.32328 6.90922 L4.21875 6.90922 C4.21875 6.90922 4.16016 6.25484 3.88672 5.92766 C3.88672 5.92766 3.46687 5.41984 2.79781 5.41984 C2.79781 5.41984 2.19234 5.41984 1.77969 5.82516 C1.77969 5.82516 1.36719 6.23047 1.32328 6.90922 Z"/>
  <path id="GlArialMT114" d="M0.649375 10 L0.649375 4.81438 L1.44047 4.81438 L1.44047 5.60062 C1.44047 5.60062 1.74313 5.04875 1.99953 4.87297 C1.99953 4.87297 2.25594 4.69719 2.56344 4.69719 C2.56344 4.69719 3.00781 4.69719 3.46687 4.98047 L3.16406 5.79594 C3.16406 5.79594 2.84187 5.60547 2.51953 5.60547 C2.51953 5.60547 2.23141 5.60547 2.00188 5.77891 C2.00188 5.77891 1.7725 5.95219 1.67484 6.25969 C1.67484 6.25969 1.52828 6.72844 1.52828 7.28516 L1.52828 10 L0.649375 10 Z"/>
  <clipPath id="Clip2">
   <path d="M0 0 L100.5 0 L100.5 64.75 L0 64.75 L0 0 Z" transform="translate(1015, 140)"/>
  </clipPath>
  <path id="GlArialMT99" d="M4.04297 8.10063 L4.90719 8.21281 C4.90719 8.21281 4.76562 9.10641 4.18203 9.61187 C4.18203 9.61187 3.59859 10.1172 2.74906 10.1172 C2.74906 10.1172 1.68453 10.1172 1.0375 9.42141 C1.0375 9.42141 0.390625 8.72563 0.390625 7.42672 C0.390625 7.42672 0.390625 6.58688 0.668906 5.95703 C0.668906 5.95703 0.947344 5.32719 1.51609 5.01219 C1.51609 5.01219 2.085 4.69719 2.75391 4.69719 C2.75391 4.69719 3.59859 4.69719 4.13563 5.12453 C4.13563 5.12453 4.67281 5.55172 4.82422 6.33781 L3.96969 6.46969 C3.96969 6.46969 3.84766 5.94719 3.5375 5.68359 C3.5375 5.68359 3.2275 5.41984 2.78812 5.41984 C2.78812 5.41984 2.12406 5.41984 1.70891 5.89594 C1.70891 5.89594 1.29391 6.37203 1.29391 7.40234 C1.29391 7.40234 1.29391 8.44719 1.69422 8.92094 C1.69422 8.92094 2.09469 9.39453 2.73922 9.39453 C2.73922 9.39453 3.25687 9.39453 3.60344 9.07719 C3.60344 9.07719 3.95016 8.75969 4.04297 8.10063 Z"/>
  <path id="GlArialMT95" d="M-0.151406 11.9873 L-0.151406 11.3525 L5.67391 11.3525 L5.67391 11.9873 L-0.151406 11.9873 Z"/>
  <path id="GlArialMT100" d="M4.02344 10 L4.02344 9.34563 C4.02344 9.34563 3.53031 10.1172 2.57328 10.1172 C2.57328 10.1172 1.95312 10.1172 1.43312 9.77547 C1.43312 9.77547 0.913125 9.43359 0.6275 8.82078 C0.6275 8.82078 0.341875 8.20797 0.341875 7.41203 C0.341875 7.41203 0.341875 6.63578 0.600625 6.00344 C0.600625 6.00344 0.859375 5.37109 1.37688 5.03422 C1.37688 5.03422 1.89453 4.69719 2.53422 4.69719 C2.53422 4.69719 3.00297 4.69719 3.36906 4.895 C3.36906 4.895 3.73531 5.09281 3.96484 5.41016 L3.96484 2.84172 L4.83891 2.84172 L4.83891 10 L4.02344 10 L4.02344 10 Z M1.24516 7.41203 C1.24516 7.41203 1.24516 8.40813 1.665 8.90141 C1.665 8.90141 2.085 9.39453 2.65625 9.39453 C2.65625 9.39453 3.2325 9.39453 3.63531 8.92344 C3.63531 8.92344 4.03812 8.45219 4.03812 7.48531 C4.03812 7.48531 4.03812 6.42094 3.62797 5.92297 C3.62797 5.92297 3.21781 5.42484 2.61719 5.42484 C2.61719 5.42484 2.03125 5.42484 1.63813 5.90344 C1.63813 5.90344 1.24516 6.38187 1.24516 7.41203 Z"/>
  <path id="GlArialMT105" d="M0.664062 3.8525 L0.664062 2.84172 L1.54297 2.84172 L1.54297 3.8525 L0.664062 3.8525 L0.664062 3.8525 Z M0.664062 10 L0.664062 4.81438 L1.54297 4.81438 L1.54297 10 L0.664062 10 Z"/>
  <clipPath id="Clip3">
   <path d="M0 0 L100.5 0 L100.5 64.75 L0 64.75 L0 0 Z" transform="translate(555.5, 225)"/>
  </clipPath>
  <path id="GlArialMT102" d="M0.869219 10 L0.869219 5.49797 L0.0928125 5.49797 L0.0928125 4.81438 L0.869219 4.81438 L0.869219 4.26266 C0.869219 4.26266 0.869219 3.74016 0.961875 3.48625 C0.961875 3.48625 1.08891 3.14453 1.40875 2.93219 C1.40875 2.93219 1.72859 2.71969 2.30469 2.71969 C2.30469 2.71969 2.67578 2.71969 3.125 2.80766 L2.99313 3.57422 C2.99313 3.57422 2.71969 3.52531 2.47562 3.52531 C2.47562 3.52531 2.07516 3.52531 1.90906 3.69625 C1.90906 3.69625 1.74313 3.86719 1.74313 4.33594 L1.74313 4.81438 L2.75391 4.81438 L2.75391 5.49797 L1.74313 5.49797 L1.74313 10 L0.869219 10 Z"/>
  <path id="GlArialMT98" d="M1.46969 10 L0.654375 10 L0.654375 2.84172 L1.53328 2.84172 L1.53328 5.39547 C1.53328 5.39547 2.08984 4.69719 2.95406 4.69719 C2.95406 4.69719 3.43266 4.69719 3.85984 4.89016 C3.85984 4.89016 4.28719 5.08297 4.56297 5.43219 C4.56297 5.43219 4.83891 5.78125 4.99516 6.27438 C4.99516 6.27438 5.15141 6.7675 5.15141 7.32906 C5.15141 7.32906 5.15141 8.66203 4.49219 9.38969 C4.49219 9.38969 3.83297 10.1172 2.91016 10.1172 C2.91016 10.1172 1.99219 10.1172 1.46969 9.35063 L1.46969 10 L1.46969 10 Z M1.46 7.36813 C1.46 7.36813 1.46 8.30078 1.71391 8.71578 C1.71391 8.71578 2.12891 9.39453 2.83688 9.39453 C2.83688 9.39453 3.41312 9.39453 3.83297 8.89406 C3.83297 8.89406 4.25297 8.39359 4.25297 7.40234 C4.25297 7.40234 4.25297 6.38672 3.85016 5.90328 C3.85016 5.90328 3.44734 5.41984 2.87594 5.41984 C2.87594 5.41984 2.29984 5.41984 1.87984 5.92047 C1.87984 5.92047 1.46 6.42094 1.46 7.36813 Z"/>
  <clipPath id="Clip4">
   <path d="M0 0 L100.5 0 L100.5 64.75 L0 64.75 L0 0 Z" transform="translate(710, 225)"/>
  </clipPath>
  <clipPath id="Clip5">
   <path d="M0 0 L100.5 0 L100.5 64.75 L0 64.75 L0 0 Z" transform="translate(860, 225)"/>
  </clipPath>
  <path id="GlArialMT104" d="M0.659219 10 L0.659219 2.84172 L1.53812 2.84172 L1.53812 5.41016 C1.53812 5.41016 2.15328 4.69719 3.09078 4.69719 C3.09078 4.69719 3.66703 4.69719 4.09172 4.92437 C4.09172 4.92437 4.51656 5.15141 4.69969 5.55187 C4.69969 5.55187 4.88281 5.95219 4.88281 6.71391 L4.88281 10 L4.00391 10 L4.00391 6.71391 C4.00391 6.71391 4.00391 6.05469 3.71828 5.75437 C3.71828 5.75437 3.43266 5.45406 2.91016 5.45406 C2.91016 5.45406 2.51953 5.45406 2.17531 5.65672 C2.17531 5.65672 1.83109 5.85938 1.68453 6.20609 C1.68453 6.20609 1.53812 6.55266 1.53812 7.16312 L1.53812 10 L0.659219 10 Z"/>
  <clipPath id="Clip6">
   <path d="M0 0 L100.5 0 L100.5 64.75 L0 64.75 L0 0 Z" transform="translate(1015, 225)"/>
  </clipPath>
  <clipPath id="Clip7">
   <path d="M0 0 L100.5 0 L100.5 64.75 L0 64.75 L0 0 Z" transform="translate(460, 450)"/>
  </clipPath>
  <path id="GlArialMT118" d="M2.09969 10 L0.127031 4.81438 L1.05469 4.81438 L2.16797 7.91984 C2.16797 7.91984 2.34859 8.42281 2.5 8.96484 C2.5 8.96484 2.61719 8.55469 2.82719 7.97844 L3.97953 4.81438 L4.88281 4.81438 L2.92 10 L2.09969 10 Z"/>
  <path id="GlArialMT116" d="M2.57812 9.21391 L2.70516 9.99016 C2.70516 9.99016 2.33406 10.0684 2.04109 10.0684 C2.04109 10.0684 1.5625 10.0684 1.29875 9.91703 C1.29875 9.91703 1.03516 9.76562 0.927656 9.51906 C0.927656 9.51906 0.820312 9.2725 0.820312 8.48141 L0.820312 5.49797 L0.175781 5.49797 L0.175781 4.81438 L0.820312 4.81438 L0.820312 3.53031 L1.69437 3.00297 L1.69437 4.81438 L2.57812 4.81438 L2.57812 5.49797 L1.69437 5.49797 L1.69437 8.53031 C1.69437 8.53031 1.69437 8.90625 1.74078 9.01375 C1.74078 9.01375 1.78719 9.12109 1.89203 9.18453 C1.89203 9.18453 1.99703 9.24797 2.19234 9.24797 C2.19234 9.24797 2.33891 9.24797 2.57812 9.21391 Z"/>
  <clipPath id="Clip8">
   <path d="M0 0 L100.5 0 L100.5 64.75 L0 64.75 L0 0 Z" transform="translate(1015, 450)"/>
  </clipPath>
  <clipPath id="Clip9">
   <path d="M0 0 L100.5 0 L100.5 64.75 L0 64.75 L0 0 Z" transform="translate(339, 370)"/>
  </clipPath>
  <path id="GlArialMT108" d="M0.639687 10 L0.639687 2.84172 L1.51859 2.84172 L1.51859 10 L0.639687 10 Z"/>
  <clipPath id="Clip10">
   <path d="M0 0 L100.5 0 L100.5 64.75 L0 64.75 L0 0 Z" transform="translate(1015, 370)"/>
  </clipPath>
  <clipPath id="Clip11">
   <path d="M0 0 L100.5 0 L100.5 64.75 L0 64.75 L0 0 Z" transform="translate(460, 530)"/>
  </clipPath>
  <clipPath id="Clip12">
   <path d="M0 0 L100.5 0 L100.5 64.75 L0 64.75 L0 0 Z" transform="translate(1015, 530)"/>
  </clipPath>
  <clipPath id="Clip13">
   <path d="M0 0 L100.5 0 L100.5 64.75 L0 64.75 L0 0 Z" transform="translate(1220, 314)"/>
  </clipPath>
  <clipPath id="Clip14">
   <path d="M0 0 L100.5 0 L100.5 64.75 L0 64.75 L0 0 Z" transform="translate(650, 70)"/>
  </clipPath>
 </defs>
 <g id="Background">
  <g id="Group1" clip-path="url(#Clip0)">
   <path style="fill:none;stroke:#161413; stroke-width:1; stroke-linecap:butt; stroke-linejoin:miter; stroke-dasharray:none;" d="M99.5 31.875 C99.5 49.4797 77.2272 63.75 49.75 63.75 C22.2738 63.75 0 49.4797 0 31.875 C0 14.2709 22.2738 0 49.75 0 C77.2272 0 99.5 14.2709 99.5 31.875 Z" transform="translate(39, 317.5)"/>
   <g transform="translate(56.625, 343.5)">
    <use style="fill:#161413;stroke:none;" xlink:href="#GlArialMT97" transform="matrix(1.2 0 0 1.2 0 -5.63672)"/>
    <use style="fill:#161413;stroke:none;" xlink:href="#GlArialMT110" transform="matrix(1.2 0 0 1.2 6.67383 -5.63672)"/>
    <use style="fill:#161413;stroke:none;" xlink:href="#GlArialMT111" transform="matrix(1.2 0 0 1.2 13.3477 -5.63672)"/>
    <use style="fill:#161413;stroke:none;" xlink:href="#GlArialMT110" transform="matrix(1.2 0 0 1.2 20.0215 -5.63672)"/>
    <use style="fill:#161413;stroke:none;" xlink:href="#GlArialMT121" transform="matrix(1.2 0 0 1.2 26.6953 -5.63672)"/>
    <use style="fill:#161413;stroke:none;" xlink:href="#GlArialMT109" transform="matrix(1.2 0 0 1.2 32.6953 -5.63672)"/>
    <use style="fill:#161413;stroke:none;" xlink:href="#GlArialMT111" transform="matrix(1.2 0 0 1.2 42.6914 -5.63672)"/>
    <use style="fill:#161413;stroke:none;" xlink:href="#GlArialMT117" transform="matrix(1.2 0 0 1.2 49.3652 -5.63672)"/>
    <use style="fill:#161413;stroke:none;" xlink:href="#GlArialMT115" transform="matrix(1.2 0 0 1.2 56.0391 -5.63672)"/>
    <path style="fill:none; stroke:none;" d="M0 0 L64.25 0 L64.25 13.5 L0 13.5 L0 0 Z"/>
   </g>
  </g>
  <g id="Copy of Group1" clip-path="url(#Clip1)">
   <path style="fill:none;stroke:#161413; stroke-width:1; stroke-linecap:butt; stroke-linejoin:miter; stroke-dasharray:none;" d="M99.5 31.875 C99.5 49.4797 77.2272 63.75 49.75 63.75 C22.2738 63.75 0 49.4797 0 31.875 C0 14.2709 22.2738 0 49.75 0 C77.2272 0 99.5 14.2709 99.5 31.875 Z" transform="translate(193, 314.5)"/>
   <g transform="translate(210.625, 340.5)">
    <use style="fill:#161413;stroke:none;" xlink:href="#GlArialMT112" transform="matrix(1.2 0 0 1.2 0 -5.63672)"/>
    <use style="fill:#161413;stroke:none;" xlink:href="#GlArialMT101" transform="matrix(1.2 0 0 1.2 6.67383 -5.63672)"/>
    <use style="fill:#161413;stroke:none;" xlink:href="#GlArialMT114" transform="matrix(1.2 0 0 1.2 13.3477 -5.63672)"/>
    <use style="fill:#161413;stroke:none;" xlink:href="#GlArialMT115" transform="matrix(1.2 0 0 1.2 17.3438 -5.63672)"/>
    <use style="fill:#161413;stroke:none;" xlink:href="#GlArialMT111" transform="matrix(1.2 0 0 1.2 23.3438 -5.63672)"/>
    <use style="fill:#161413;stroke:none;" xlink:href="#GlArialMT110" transform="matrix(1.2 0 0 1.2 30.0176 -5.63672)"/>
    <use style="fill:#161413;stroke:none;" xlink:href="#GlArialMT97" transform="matrix(1.2 0 0 1.2 36.6914 -5.63672)"/>
    <path style="fill:none; stroke:none;" d="M0 0 L64.25 0 L64.25 13.5 L0 13.5 L0 0 Z"/>
   </g>
  </g>
  <g>
   <path style="stroke:#161413; stroke-width:1; stroke-linecap:butt; stroke-linejoin:miter; stroke-dasharray:none;" d="M 0 0 L 51.5006 0" transform="translate(137, 346) rotate(0.278133)"/>
   <path style="fill:#161413; stroke:none;" d="M51.5006 0 L51.5006 0 L49.0006 -2.5 L57.5006 0 L49.0006 2.5 L51.5006 0 Z" transform="translate(137, 346) rotate(0.278133)"/>
  </g>
  <g id="Copy of Group1 (2)" clip-path="url(#Clip2)">
   <path style="fill:none;stroke:#161413; stroke-width:1; stroke-linecap:butt; stroke-linejoin:miter; stroke-dasharray:none;" d="M99.5 31.875 C99.5 49.4797 77.2272 63.75 49.75 63.75 C22.2738 63.75 0 49.4797 0 31.875 C0 14.2709 22.2738 0 49.75 0 C77.2272 0 99.5 14.2709 99.5 31.875 Z" transform="translate(1015.5, 140.5)"/>
   <g transform="translate(1033.12, 166.5)">
    <use style="fill:#161413;stroke:none;" xlink:href="#GlArialMT99" transform="matrix(1.2 0 0 1.2 0 -3.40016)"/>
    <use style="fill:#161413;stroke:none;" xlink:href="#GlArialMT111" transform="matrix(1.2 0 0 1.2 6 -3.40016)"/>
    <use style="fill:#161413;stroke:none;" xlink:href="#GlArialMT114" transform="matrix(1.2 0 0 1.2 12.6738 -3.40016)"/>
    <use style="fill:#161413;stroke:none;" xlink:href="#GlArialMT101" transform="matrix(1.2 0 0 1.2 16.6699 -3.40016)"/>
    <use style="fill:#161413;stroke:none;" xlink:href="#GlArialMT95" transform="matrix(1.2 0 0 1.2 23.3438 -3.40016)"/>
    <use style="fill:#161413;stroke:none;" xlink:href="#GlArialMT97" transform="matrix(1.2 0 0 1.2 30.0176 -3.40016)"/>
    <use style="fill:#161413;stroke:none;" xlink:href="#GlArialMT100" transform="matrix(1.2 0 0 1.2 36.6914 -3.40016)"/>
    <use style="fill:#161413;stroke:none;" xlink:href="#GlArialMT109" transform="matrix(1.2 0 0 1.2 43.3652 -3.40016)"/>
    <use style="fill:#161413;stroke:none;" xlink:href="#GlArialMT105" transform="matrix(1.2 0 0 1.2 53.3613 -3.40016)"/>
    <use style="fill:#161413;stroke:none;" xlink:href="#GlArialMT110" transform="matrix(1.2 0 0 1.2 56.0273 -3.40016)"/>
    <path style="fill:none; stroke:none;" d="M0 0 L64.25 0 L64.25 13.5 L0 13.5 L0 0 Z"/>
   </g>
  </g>
  <g id="Copy of Group1 (3)" clip-path="url(#Clip3)">
   <path style="fill:none;stroke:#161413; stroke-width:1; stroke-linecap:butt; stroke-linejoin:miter; stroke-dasharray:none;" d="M99.5 31.875 C99.5 49.4797 77.2272 63.75 49.75 63.75 C22.2738 63.75 0 49.4797 0 31.875 C0 14.2709 22.2738 0 49.75 0 C77.2272 0 99.5 14.2709 99.5 31.875 Z" transform="translate(556, 225.5)"/>
   <g transform="translate(566.625, 251.5)">
    <use style="fill:#161413;stroke:none;" xlink:href="#GlArialMT102" transform="matrix(1.2 0 0 1.2 0 -3.26367)"/>
    <use style="fill:#161413;stroke:none;" xlink:href="#GlArialMT111" transform="matrix(1.2 0 0 1.2 3.33398 -3.26367)"/>
    <use style="fill:#161413;stroke:none;" xlink:href="#GlArialMT114" transform="matrix(1.2 0 0 1.2 10.0078 -3.26367)"/>
    <use style="fill:#161413;stroke:none;" xlink:href="#GlArialMT109" transform="matrix(1.2 0 0 1.2 14.0039 -3.26367)"/>
    <use style="fill:#161413;stroke:none;" xlink:href="#GlArialMT101" transform="matrix(1.2 0 0 1.2 24 -3.26367)"/>
    <use style="fill:#161413;stroke:none;" xlink:href="#GlArialMT114" transform="matrix(1.2 0 0 1.2 30.6738 -3.26367)"/>
    <use style="fill:#161413;stroke:none;" xlink:href="#GlArialMT109" transform="matrix(1.2 0 0 1.2 34.6699 -3.26367)"/>
    <use style="fill:#161413;stroke:none;" xlink:href="#GlArialMT101" transform="matrix(1.2 0 0 1.2 44.666 -3.26367)"/>
    <use style="fill:#161413;stroke:none;" xlink:href="#GlArialMT109" transform="matrix(1.2 0 0 1.2 51.3398 -3.26367)"/>
    <use style="fill:#161413;stroke:none;" xlink:href="#GlArialMT98" transform="matrix(1.2 0 0 1.2 61.3359 -3.26367)"/>
    <use style="fill:#161413;stroke:none;" xlink:href="#GlArialMT101" transform="matrix(1.2 0 0 1.2 68.0098 -3.26367)"/>
    <use style="fill:#161413;stroke:none;" xlink:href="#GlArialMT114" transform="matrix(1.2 0 0 1.2 74.6836 -3.26367)"/>
    <path style="fill:none; stroke:none;" d="M0 0 L81.875 0 L81.875 13.5 L0 13.5 L0 0 Z"/>
   </g>
  </g>
  <g id="Copy of Group1 (4)" clip-path="url(#Clip4)">
   <path style="fill:none;stroke:#161413; stroke-width:1; stroke-linecap:butt; stroke-linejoin:miter; stroke-dasharray:none;" d="M99.5 31.875 C99.5 49.4797 77.2272 63.75 49.75 63.75 C22.2738 63.75 0 49.4797 0 31.875 C0 14.2709 22.2738 0 49.75 0 C77.2272 0 99.5 14.2709 99.5 31.875 Z" transform="translate(710.5, 225.5)"/>
   <g transform="translate(728.125, 251.5)">
    <use style="fill:#161413;stroke:none;" xlink:href="#GlArialMT109" transform="matrix(1.2 0 0 1.2 0 -3.40016)"/>
    <use style="fill:#161413;stroke:none;" xlink:href="#GlArialMT101" transform="matrix(1.2 0 0 1.2 9.99609 -3.40016)"/>
    <use style="fill:#161413;stroke:none;" xlink:href="#GlArialMT109" transform="matrix(1.2 0 0 1.2 16.6699 -3.40016)"/>
    <use style="fill:#161413;stroke:none;" xlink:href="#GlArialMT98" transform="matrix(1.2 0 0 1.2 26.666 -3.40016)"/>
    <use style="fill:#161413;stroke:none;" xlink:href="#GlArialMT101" transform="matrix(1.2 0 0 1.2 33.3398 -3.40016)"/>
    <use style="fill:#161413;stroke:none;" xlink:href="#GlArialMT114" transform="matrix(1.2 0 0 1.2 40.0137 -3.40016)"/>
    <path style="fill:none; stroke:none;" d="M0 0 L64.25 0 L64.25 13.5 L0 13.5 L0 0 Z"/>
   </g>
  </g>
  <g id="Copy of Group1 (5)" clip-path="url(#Clip5)">
   <path style="fill:none;stroke:#161413; stroke-width:1; stroke-linecap:butt; stroke-linejoin:miter; stroke-dasharray:none;" d="M99.5 31.875 C99.5 49.4797 77.2272 63.75 49.75 63.75 C22.2738 63.75 0 49.4797 0 31.875 C0 14.2709 22.2738 0 49.75 0 C77.2272 0 99.5 14.2709 99.5 31.875 Z" transform="translate(860.5, 225.5)"/>
   <g transform="translate(870.125, 251.5)">
    <use style="fill:#161413;stroke:none;" xlink:href="#GlArialMT115" transform="matrix(1.2 0 0 1.2 0 -3.40016)"/>
    <use style="fill:#161413;stroke:none;" xlink:href="#GlArialMT101" transform="matrix(1.2 0 0 1.2 6 -3.40016)"/>
    <use style="fill:#161413;stroke:none;" xlink:href="#GlArialMT97" transform="matrix(1.2 0 0 1.2 12.6738 -3.40016)"/>
    <use style="fill:#161413;stroke:none;" xlink:href="#GlArialMT114" transform="matrix(1.2 0 0 1.2 19.3477 -3.40016)"/>
    <use style="fill:#161413;stroke:none;" xlink:href="#GlArialMT99" transform="matrix(1.2 0 0 1.2 23.3438 -3.40016)"/>
    <use style="fill:#161413;stroke:none;" xlink:href="#GlArialMT104" transform="matrix(1.2 0 0 1.2 29.3438 -3.40016)"/>
    <use style="fill:#161413;stroke:none;" xlink:href="#GlArialMT109" transform="matrix(1.2 0 0 1.2 36.0176 -3.40016)"/>
    <use style="fill:#161413;stroke:none;" xlink:href="#GlArialMT101" transform="matrix(1.2 0 0 1.2 46.0137 -3.40016)"/>
    <use style="fill:#161413;stroke:none;" xlink:href="#GlArialMT109" transform="matrix(1.2 0 0 1.2 52.6875 -3.40016)"/>
    <use style="fill:#161413;stroke:none;" xlink:href="#GlArialMT98" transform="matrix(1.2 0 0 1.2 62.6836 -3.40016)"/>
    <use style="fill:#161413;stroke:none;" xlink:href="#GlArialMT101" transform="matrix(1.2 0 0 1.2 69.3574 -3.40016)"/>
    <use style="fill:#161413;stroke:none;" xlink:href="#GlArialMT114" transform="matrix(1.2 0 0 1.2 76.0312 -3.40016)"/>
    <path style="fill:none; stroke:none;" d="M0 0 L84.875 0 L84.875 13.5 L0 13.5 L0 0 Z"/>
   </g>
  </g>
  <g id="Copy of Group1 (6)" clip-path="url(#Clip6)">
   <path style="fill:none;stroke:#161413; stroke-width:1; stroke-linecap:butt; stroke-linejoin:miter; stroke-dasharray:none;" d="M99.5 31.875 C99.5 49.4797 77.2272 63.75 49.75 63.75 C22.2738 63.75 0 49.4797 0 31.875 C0 14.2709 22.2738 0 49.75 0 C77.2272 0 99.5 14.2709 99.5 31.875 Z" transform="translate(1015.5, 225.5)"/>
   <g transform="translate(1033.12, 251.5)">
    <use style="fill:#161413;stroke:none;" xlink:href="#GlArialMT99" transform="matrix(1.2 0 0 1.2 0 -3.40016)"/>
    <use style="fill:#161413;stroke:none;" xlink:href="#GlArialMT100" transform="matrix(1.2 0 0 1.2 6 -3.40016)"/>
    <use style="fill:#161413;stroke:none;" xlink:href="#GlArialMT101" transform="matrix(1.2 0 0 1.2 12.6738 -3.40016)"/>
    <use style="fill:#161413;stroke:none;" xlink:href="#GlArialMT95" transform="matrix(1.2 0 0 1.2 19.3477 -3.40016)"/>
    <use style="fill:#161413;stroke:none;" xlink:href="#GlArialMT97" transform="matrix(1.2 0 0 1.2 26.0215 -3.40016)"/>
    <use style="fill:#161413;stroke:none;" xlink:href="#GlArialMT100" transform="matrix(1.2 0 0 1.2 32.6953 -3.40016)"/>
    <use style="fill:#161413;stroke:none;" xlink:href="#GlArialMT109" transform="matrix(1.2 0 0 1.2 39.3691 -3.40016)"/>
    <use style="fill:#161413;stroke:none;" xlink:href="#GlArialMT105" transform="matrix(1.2 0 0 1.2 49.3652 -3.40016)"/>
    <use style="fill:#161413;stroke:none;" xlink:href="#GlArialMT110" transform="matrix(1.2 0 0 1.2 52.0312 -3.40016)"/>
    <path style="fill:none; stroke:none;" d="M0 0 L64.25 0 L64.25 13.5 L0 13.5 L0 0 Z"/>
   </g>
  </g>
  <g id="Copy of Group1 (7)" clip-path="url(#Clip7)">
   <path style="fill:none;stroke:#161413; stroke-width:1; stroke-linecap:butt; stroke-linejoin:miter; stroke-dasharray:none;" d="M99.5 31.875 C99.5 49.4797 77.2272 63.75 49.75 63.75 C22.2738 63.75 0 49.4797 0 31.875 C0 14.2709 22.2738 0 49.75 0 C77.2272 0 99.5 14.2709 99.5 31.875 Z" transform="translate(460.5, 450.5)"/>
   <g transform="translate(478.125, 476.5)">
    <use style="fill:#161413;stroke:none;" xlink:href="#GlArialMT101" transform="matrix(1.2 0 0 1.2 0 -3.59352)"/>
    <use style="fill:#161413;stroke:none;" xlink:href="#GlArialMT118" transform="matrix(1.2 0 0 1.2 6.67383 -3.59352)"/>
    <use style="fill:#161413;stroke:none;" xlink:href="#GlArialMT101" transform="matrix(1.2 0 0 1.2 12.6738 -3.59352)"/>
    <use style="fill:#161413;stroke:none;" xlink:href="#GlArialMT110" transform="matrix(1.2 0 0 1.2 19.3477 -3.59352)"/>
    <use style="fill:#161413;stroke:none;" xlink:href="#GlArialMT116" transform="matrix(1.2 0 0 1.2 26.0215 -3.59352)"/>
    <use style="fill:#161413;stroke:none;" xlink:href="#GlArialMT95" transform="matrix(1.2 0 0 1.2 29.3555 -3.59352)"/>
    <use style="fill:#161413;stroke:none;" xlink:href="#GlArialMT117" transform="matrix(1.2 0 0 1.2 36.0293 -3.59352)"/>
    <use style="fill:#161413;stroke:none;" xlink:href="#GlArialMT115" transform="matrix(1.2 0 0 1.2 42.7031 -3.59352)"/>
    <use style="fill:#161413;stroke:none;" xlink:href="#GlArialMT101" transform="matrix(1.2 0 0 1.2 48.7031 -3.59352)"/>
    <use style="fill:#161413;stroke:none;" xlink:href="#GlArialMT114" transform="matrix(1.2 0 0 1.2 55.377 -3.59352)"/>
    <path style="fill:none; stroke:none;" d="M0 0 L64.25 0 L64.25 13.5 L0 13.5 L0 0 Z"/>
   </g>
  </g>
  <g id="Copy of Group1 (8)" clip-path="url(#Clip8)">
   <path style="fill:none;stroke:#161413; stroke-width:1; stroke-linecap:butt; stroke-linejoin:miter; stroke-dasharray:none;" d="M99.5 31.875 C99.5 49.4797 77.2272 63.75 49.75 63.75 C22.2738 63.75 0 49.4797 0 31.875 C0 14.2709 22.2738 0 49.75 0 C77.2272 0 99.5 14.2709 99.5 31.875 Z" transform="translate(1015.5, 450.5)"/>
   <g transform="translate(1030.12, 476.5)">
    <use style="fill:#161413;stroke:none;" xlink:href="#GlArialMT101" transform="matrix(1.2 0 0 1.2 0 -3.40016)"/>
    <use style="fill:#161413;stroke:none;" xlink:href="#GlArialMT118" transform="matrix(1.2 0 0 1.2 6.67383 -3.40016)"/>
    <use style="fill:#161413;stroke:none;" xlink:href="#GlArialMT101" transform="matrix(1.2 0 0 1.2 12.6738 -3.40016)"/>
    <use style="fill:#161413;stroke:none;" xlink:href="#GlArialMT110" transform="matrix(1.2 0 0 1.2 19.3477 -3.40016)"/>
    <use style="fill:#161413;stroke:none;" xlink:href="#GlArialMT116" transform="matrix(1.2 0 0 1.2 26.0215 -3.40016)"/>
    <use style="fill:#161413;stroke:none;" xlink:href="#GlArialMT95" transform="matrix(1.2 0 0 1.2 29.3555 -3.40016)"/>
    <use style="fill:#161413;stroke:none;" xlink:href="#GlArialMT97" transform="matrix(1.2 0 0 1.2 36.0293 -3.40016)"/>
    <use style="fill:#161413;stroke:none;" xlink:href="#GlArialMT100" transform="matrix(1.2 0 0 1.2 42.7031 -3.40016)"/>
    <use style="fill:#161413;stroke:none;" xlink:href="#GlArialMT109" transform="matrix(1.2 0 0 1.2 49.377 -3.40016)"/>
    <use style="fill:#161413;stroke:none;" xlink:href="#GlArialMT105" transform="matrix(1.2 0 0 1.2 59.373 -3.40016)"/>
    <use style="fill:#161413;stroke:none;" xlink:href="#GlArialMT110" transform="matrix(1.2 0 0 1.2 62.0391 -3.40016)"/>
    <path style="fill:none; stroke:none;" d="M0 0 L75.125 0 L75.125 13.5 L0 13.5 L0 0 Z"/>
   </g>
  </g>
  <g id="Copy of Group1 (9)" clip-path="url(#Clip9)">
   <path style="fill:none;stroke:#161413; stroke-width:1; stroke-linecap:butt; stroke-linejoin:miter; stroke-dasharray:none;" d="M99.5 31.875 C99.5 49.4797 77.2272 63.75 49.75 63.75 C22.2738 63.75 0 49.4797 0 31.875 C0 14.2709 22.2738 0 49.75 0 C77.2272 0 99.5 14.2709 99.5 31.875 Z" transform="translate(339.5, 370.5)"/>
   <g transform="translate(361.125, 396.5)">
    <use style="fill:#161413;stroke:none;" xlink:href="#GlArialMT109" transform="matrix(1.2 0 0 1.2 0 -3.40016)"/>
    <use style="fill:#161413;stroke:none;" xlink:href="#GlArialMT108" transform="matrix(1.2 0 0 1.2 9.99609 -3.40016)"/>
    <use style="fill:#161413;stroke:none;" xlink:href="#GlArialMT95" transform="matrix(1.2 0 0 1.2 12.6621 -3.40016)"/>
    <use style="fill:#161413;stroke:none;" xlink:href="#GlArialMT117" transform="matrix(1.2 0 0 1.2 19.3359 -3.40016)"/>
    <use style="fill:#161413;stroke:none;" xlink:href="#GlArialMT115" transform="matrix(1.2 0 0 1.2 26.0098 -3.40016)"/>
    <use style="fill:#161413;stroke:none;" xlink:href="#GlArialMT101" transform="matrix(1.2 0 0 1.2 32.0098 -3.40016)"/>
    <use style="fill:#161413;stroke:none;" xlink:href="#GlArialMT114" transform="matrix(1.2 0 0 1.2 38.6836 -3.40016)"/>
    <path style="fill:none; stroke:none;" d="M0 0 L51.875 0 L51.875 13.5 L0 13.5 L0 0 Z"/>
   </g>
  </g>
  <g id="Copy of Group1 (10)" clip-path="url(#Clip10)">
   <path style="fill:none;stroke:#161413; stroke-width:1; stroke-linecap:butt; stroke-linejoin:miter; stroke-dasharray:none;" d="M99.5 31.875 C99.5 49.4797 77.2272 63.75 49.75 63.75 C22.2738 63.75 0 49.4797 0 31.875 C0 14.2709 22.2738 0 49.75 0 C77.2272 0 99.5 14.2709 99.5 31.875 Z" transform="translate(1015.5, 370.5)"/>
   <g transform="translate(1035.12, 396.5)">
    <use style="fill:#161413;stroke:none;" xlink:href="#GlArialMT109" transform="matrix(1.2 0 0 1.2 0 -3.40016)"/>
    <use style="fill:#161413;stroke:none;" xlink:href="#GlArialMT108" transform="matrix(1.2 0 0 1.2 9.99609 -3.40016)"/>
    <use style="fill:#161413;stroke:none;" xlink:href="#GlArialMT95" transform="matrix(1.2 0 0 1.2 12.6621 -3.40016)"/>
    <use style="fill:#161413;stroke:none;" xlink:href="#GlArialMT97" transform="matrix(1.2 0 0 1.2 19.3359 -3.40016)"/>
    <use style="fill:#161413;stroke:none;" xlink:href="#GlArialMT100" transform="matrix(1.2 0 0 1.2 26.0098 -3.40016)"/>
    <use style="fill:#161413;stroke:none;" xlink:href="#GlArialMT109" transform="matrix(1.2 0 0 1.2 32.6836 -3.40016)"/>
    <use style="fill:#161413;stroke:none;" xlink:href="#GlArialMT105" transform="matrix(1.2 0 0 1.2 42.6797 -3.40016)"/>
    <use style="fill:#161413;stroke:none;" xlink:href="#GlArialMT110" transform="matrix(1.2 0 0 1.2 45.3457 -3.40016)"/>
    <path style="fill:none; stroke:none;" d="M0 0 L59.375 0 L59.375 13.5 L0 13.5 L0 0 Z"/>
   </g>
  </g>
  <g id="Copy of Group1 (11)" clip-path="url(#Clip11)">
   <path style="fill:none;stroke:#161413; stroke-width:1; stroke-linecap:butt; stroke-linejoin:miter; stroke-dasharray:none;" d="M99.5 31.875 C99.5 49.4797 77.2272 63.75 49.75 63.75 C22.2738 63.75 0 49.4797 0 31.875 C0 14.2709 22.2738 0 49.75 0 C77.2272 0 99.5 14.2709 99.5 31.875 Z" transform="translate(460.5, 530.5)"/>
   <g transform="translate(469.125, 556.5)">
    <use style="fill:#161413;stroke:none;" xlink:href="#GlArialMT97" transform="matrix(1.2 0 0 1.2 0 -3.40016)"/>
    <use style="fill:#161413;stroke:none;" xlink:href="#GlArialMT115" transform="matrix(1.2 0 0 1.2 6.67383 -3.40016)"/>
    <use style="fill:#161413;stroke:none;" xlink:href="#GlArialMT115" transform="matrix(1.2 0 0 1.2 12.6738 -3.40016)"/>
    <use style="fill:#161413;stroke:none;" xlink:href="#GlArialMT101" transform="matrix(1.2 0 0 1.2 18.6738 -3.40016)"/>
    <use style="fill:#161413;stroke:none;" xlink:href="#GlArialMT109" transform="matrix(1.2 0 0 1.2 25.3477 -3.40016)"/>
    <use style="fill:#161413;stroke:none;" xlink:href="#GlArialMT98" transform="matrix(1.2 0 0 1.2 35.3438 -3.40016)"/>
    <use style="fill:#161413;stroke:none;" xlink:href="#GlArialMT108" transform="matrix(1.2 0 0 1.2 42.0176 -3.40016)"/>
    <use style="fill:#161413;stroke:none;" xlink:href="#GlArialMT121" transform="matrix(1.2 0 0 1.2 44.6836 -3.40016)"/>
    <use style="fill:#161413;stroke:none;" xlink:href="#GlArialMT95" transform="matrix(1.2 0 0 1.2 50.6836 -3.40016)"/>
    <use style="fill:#161413;stroke:none;" xlink:href="#GlArialMT117" transform="matrix(1.2 0 0 1.2 57.3574 -3.40016)"/>
    <use style="fill:#161413;stroke:none;" xlink:href="#GlArialMT115" transform="matrix(1.2 0 0 1.2 64.0312 -3.40016)"/>
    <use style="fill:#161413;stroke:none;" xlink:href="#GlArialMT101" transform="matrix(1.2 0 0 1.2 70.0312 -3.40016)"/>
    <use style="fill:#161413;stroke:none;" xlink:href="#GlArialMT114" transform="matrix(1.2 0 0 1.2 76.7051 -3.40016)"/>
    <path style="fill:none; stroke:none;" d="M0 0 L85.875 0 L85.875 13.5 L0 13.5 L0 0 Z"/>
   </g>
  </g>
  <g id="Copy of Group1 (12)" clip-path="url(#Clip12)">
   <path style="fill:none;stroke:#161413; stroke-width:1; stroke-linecap:butt; stroke-linejoin:miter; stroke-dasharray:none;" d="M99.5 31.875 C99.5 49.4797 77.2272 63.75 49.75 63.75 C22.2738 63.75 0 49.4797 0 31.875 C0 14.2709 22.2738 0 49.75 0 C77.2272 0 99.5 14.2709 99.5 31.875 Z" transform="translate(1015.5, 530.5)"/>
   <g transform="translate(1020.12, 556.5)">
    <use style="fill:#161413;stroke:none;" xlink:href="#GlArialMT97" transform="matrix(1.2 0 0 1.2 0 -3.40016)"/>
    <use style="fill:#161413;stroke:none;" xlink:href="#GlArialMT115" transform="matrix(1.2 0 0 1.2 6.67383 -3.40016)"/>
    <use style="fill:#161413;stroke:none;" xlink:href="#GlArialMT115" transform="matrix(1.2 0 0 1.2 12.6738 -3.40016)"/>
    <use style="fill:#161413;stroke:none;" xlink:href="#GlArialMT101" transform="matrix(1.2 0 0 1.2 18.6738 -3.40016)"/>
    <use style="fill:#161413;stroke:none;" xlink:href="#GlArialMT109" transform="matrix(1.2 0 0 1.2 25.3477 -3.40016)"/>
    <use style="fill:#161413;stroke:none;" xlink:href="#GlArialMT98" transform="matrix(1.2 0 0 1.2 35.3438 -3.40016)"/>
    <use style="fill:#161413;stroke:none;" xlink:href="#GlArialMT108" transform="matrix(1.2 0 0 1.2 42.0176 -3.40016)"/>
    <use style="fill:#161413;stroke:none;" xlink:href="#GlArialMT121" transform="matrix(1.2 0 0 1.2 44.6836 -3.40016)"/>
    <use style="fill:#161413;stroke:none;" xlink:href="#GlArialMT95" transform="matrix(1.2 0 0 1.2 50.6836 -3.40016)"/>
    <use style="fill:#161413;stroke:none;" xlink:href="#GlArialMT97" transform="matrix(1.2 0 0 1.2 57.3574 -3.40016)"/>
    <use style="fill:#161413;stroke:none;" xlink:href="#GlArialMT100" transform="matrix(1.2 0 0 1.2 64.0312 -3.40016)"/>
    <use style="fill:#161413;stroke:none;" xlink:href="#GlArialMT109" transform="matrix(1.2 0 0 1.2 70.7051 -3.40016)"/>
    <use style="fill:#161413;stroke:none;" xlink:href="#GlArialMT105" transform="matrix(1.2 0 0 1.2 80.7012 -3.40016)"/>
    <use style="fill:#161413;stroke:none;" xlink:href="#GlArialMT110" transform="matrix(1.2 0 0 1.2 83.3672 -3.40016)"/>
    <path style="fill:none; stroke:none;" d="M0 0 L94.125 0 L94.125 13.5 L0 13.5 L0 0 Z"/>
   </g>
  </g>
  <g id="Copy of Group1 (13)" clip-path="url(#Clip13)">
   <path style="fill:none;stroke:#161413; stroke-width:1; stroke-linecap:butt; stroke-linejoin:miter; stroke-dasharray:none;" d="M99.5 31.875 C99.5 49.4797 77.2272 63.75 49.75 63.75 C22.2738 63.75 0 49.4797 0 31.875 C0 14.2709 22.2738 0 49.75 0 C77.2272 0 99.5 14.2709 99.5 31.875 Z" transform="translate(1220.5, 314.5)"/>
   <g transform="translate(1254.12, 340.5)">
    <use style="fill:#161413;stroke:none;" xlink:href="#GlArialMT97" transform="matrix(1.2 0 0 1.2 0 -3.40016)"/>
    <use style="fill:#161413;stroke:none;" xlink:href="#GlArialMT100" transform="matrix(1.2 0 0 1.2 6.67383 -3.40016)"/>
    <use style="fill:#161413;stroke:none;" xlink:href="#GlArialMT109" transform="matrix(1.2 0 0 1.2 13.3477 -3.40016)"/>
    <use style="fill:#161413;stroke:none;" xlink:href="#GlArialMT105" transform="matrix(1.2 0 0 1.2 23.3438 -3.40016)"/>
    <use style="fill:#161413;stroke:none;" xlink:href="#GlArialMT110" transform="matrix(1.2 0 0 1.2 26.0098 -3.40016)"/>
    <path style="fill:none; stroke:none;" d="M0 0 L41.125 0 L41.125 13.5 L0 13.5 L0 0 Z"/>
   </g>
  </g>
  <g>
   <path style="stroke:#161413; stroke-width:1; stroke-linecap:butt; stroke-linejoin:miter; stroke-dasharray:none;" d="M 0 0 L 56.0145 0" transform="translate(289.75, 359) rotate(26.222)"/>
   <path style="fill:#161413; stroke:none;" d="M56.0145 0 L56.0145 0 L53.5145 -2.5 L62.0145 0 L53.5145 2.5 L56.0145 0 Z" transform="translate(289.75, 359) rotate(26.222)"/>
  </g>
  <g>
   <path style="stroke:#161413; stroke-width:1; stroke-linecap:butt; stroke-linejoin:miter; stroke-dasharray:none;" d="M 0 0 L 271.944 0" transform="translate(286, 327.5) rotate(346.117)"/>
   <path style="fill:#161413; stroke:none;" d="M271.944 0 L271.944 0 L269.444 -2.5 L277.944 0 L269.444 2.5 L271.944 0 Z" transform="translate(286, 327.5) rotate(346.117)"/>
  </g>
  <g>
   <path style="stroke:#161413; stroke-width:1; stroke-linecap:butt; stroke-linejoin:miter; stroke-dasharray:none;" d="M 0 0 L 48.25 0" transform="translate(656.75, 255.5)"/>
   <path style="fill:#161413; stroke:none;" d="M48.25 0 L48.25 0 L45.75 -2.5 L54.25 0 L45.75 2.5 L48.25 0 Z" transform="translate(656.75, 255.5)"/>
  </g>
  <g>
   <path style="stroke:#161413; stroke-width:1; stroke-linecap:butt; stroke-linejoin:miter; stroke-dasharray:none;" d="M 0 0 L 167.184 0" transform="translate(434, 386.75) rotate(320.096)"/>
   <path style="fill:#161413; stroke:none;" d="M167.184 0 L167.184 0 L164.684 -2.5 L173.184 0 L164.684 2.5 L167.184 0 Z" transform="translate(434, 386.75) rotate(320.096)"/>
  </g>
  <g>
   <path style="stroke:#161413; stroke-width:1; stroke-linecap:butt; stroke-linejoin:miter; stroke-dasharray:none;" d="M 0 0 L 44.5 0" transform="translate(810.5, 255.5)"/>
   <path style="fill:#161413; stroke:none;" d="M44.5 0 L44.5 0 L42 -2.5 L50.5 0 L42 2.5 L44.5 0 Z" transform="translate(810.5, 255.5)"/>
  </g>
  <g>
   <path style="stroke:#161413; stroke-width:1; stroke-linecap:butt; stroke-linejoin:miter; stroke-dasharray:none;" d="M 0 0 L 50.25 0" transform="translate(960.5, 255.5)"/>
   <path style="fill:#161413; stroke:none;" d="M50.25 0 L50.25 0 L47.75 -2.5 L56.25 0 L47.75 2.5 L50.25 0 Z" transform="translate(960.5, 255.5)"/>
  </g>
  <g>
   <path style="fill:none;stroke:#161413; stroke-width:1; stroke-linecap:butt; stroke-linejoin:miter; stroke-dasharray:none;" d="M0 147.25 L112.5 8.52651e-14 L750.25 0 " transform="translate(259, 167.75)"/>
   <path style="fill:#161413; stroke:none;" d="M750.25 0 L750.25 0 L747.75 -2.5 L756.25 -8.0218e-16 L747.75 2.5 L750.25 0 Z" transform="translate(259, 167.75)"/>
  </g>
  <g>
   <path style="stroke:#161413; stroke-width:1; stroke-linecap:butt; stroke-linejoin:miter; stroke-dasharray:none;" d="M 0 0 L 572.25 0" transform="translate(438.5, 400)"/>
   <path style="fill:#161413; stroke:none;" d="M572.25 0 L572.25 0 L569.75 -2.5 L578.25 0 L569.75 2.5 L572.25 0 Z" transform="translate(438.5, 400)"/>
  </g>
  <g>
   <path style="stroke:#161413; stroke-width:1; stroke-linecap:butt; stroke-linejoin:miter; stroke-dasharray:none;" d="M 0 0 L 448.501 0" transform="translate(560.75, 480.5) rotate(0.0958123)"/>
   <path style="fill:#161413; stroke:none;" d="M448.501 0 L448.501 0 L446.001 -2.5 L454.501 0 L446.001 2.5 L448.501 0 Z" transform="translate(560.75, 480.5) rotate(0.0958123)"/>
  </g>
  <g>
   <path style="stroke:#161413; stroke-width:1; stroke-linecap:butt; stroke-linejoin:miter; stroke-dasharray:none;" d="M 0 0 L 448.5 0" transform="translate(560.75, 562.25)"/>
   <path style="fill:#161413; stroke:none;" d="M448.5 0 L448.5 0 L446 -2.5 L454.5 0 L446 2.5 L448.5 0 Z" transform="translate(560.75, 562.25)"/>
  </g>
  <g>
   <path style="stroke:#161413; stroke-width:1; stroke-linecap:butt; stroke-linejoin:miter; stroke-dasharray:none;" d="M 0 0 L 185.328 0" transform="translate(1110.5, 185) rotate(43.4696)"/>
   <path style="fill:#161413; stroke:none;" d="M185.328 0 L185.328 0 L182.828 -2.5 L191.328 0 L182.828 2.5 L185.328 0 Z" transform="translate(1110.5, 185) rotate(43.4696)"/>
  </g>
  <g>
   <path style="stroke:#161413; stroke-width:1; stroke-linecap:butt; stroke-linejoin:miter; stroke-dasharray:none;" d="M 0 0 L 129.003 0" transform="translate(1110, 270.5) rotate(24.3796)"/>
   <path style="fill:#161413; stroke:none;" d="M129.003 0 L129.003 0 L126.503 -2.5 L135.003 0 L126.503 2.5 L129.003 0 Z" transform="translate(1110, 270.5) rotate(24.3796)"/>
  </g>
  <g>
   <path style="stroke:#161413; stroke-width:1; stroke-linecap:butt; stroke-linejoin:miter; stroke-dasharray:none;" d="M 0 0 L 111.061 0" transform="translate(1112.75, 390.5) rotate(343.523)"/>
   <path style="fill:#161413; stroke:none;" d="M111.061 0 L111.061 0 L108.561 -2.5 L117.061 0 L108.561 2.5 L111.061 0 Z" transform="translate(1112.75, 390.5) rotate(343.523)"/>
  </g>
  <g>
   <path style="stroke:#161413; stroke-width:1; stroke-linecap:butt; stroke-linejoin:miter; stroke-dasharray:none;" d="M 0 0 L 156.369 0" transform="translate(1111.25, 470.75) rotate(321.426)"/>
   <path style="fill:#161413; stroke:none;" d="M156.369 0 L156.369 0 L153.869 -2.5 L162.369 0 L153.869 2.5 L156.369 0 Z" transform="translate(1111.25, 470.75) rotate(321.426)"/>
  </g>
  <g>
   <path style="stroke:#161413; stroke-width:1; stroke-linecap:butt; stroke-linejoin:miter; stroke-dasharray:none;" d="M 0 0 L 216.553 0" transform="translate(1109, 545.75) rotate(310.365)"/>
   <path style="fill:#161413; stroke:none;" d="M216.553 0 L216.553 0 L214.053 -2.5 L222.553 0 L214.053 2.5 L216.553 0 Z" transform="translate(1109, 545.75) rotate(310.365)"/>
  </g>
  <g>
   <path style="stroke:#161413; stroke-width:1; stroke-linecap:butt; stroke-linejoin:miter; stroke-dasharray:none;" d="M 0 0 L 312.43 0" transform="translate(546, 540.25) rotate(306.081)"/>
   <path style="fill:#161413; stroke:none;" d="M312.43 0 L312.43 0 L309.93 -2.5 L318.43 0 L309.93 2.5 L312.43 0 Z" transform="translate(546, 540.25) rotate(306.081)"/>
  </g>
  <g>
   <path style="stroke:#161413; stroke-width:1; stroke-linecap:butt; stroke-linejoin:miter; stroke-dasharray:none;" d="M 0 0 L 54.6632 0" transform="translate(422, 427.25) rotate(38.1278)"/>
   <path style="fill:#161413; stroke:none;" d="M54.6632 0 L54.6632 0 L52.1632 -2.5 L60.6632 0 L52.1632 2.5 L54.6632 0 Z" transform="translate(422, 427.25) rotate(38.1278)"/>
  </g>
  <g>
   <path style="stroke:#161413; stroke-width:1; stroke-linecap:butt; stroke-linejoin:miter; stroke-dasharray:none;" d="M 0 0 L 170.89 0" transform="translate(523.25, 450.5) rotate(292.175)"/>
   <path style="fill:#161413; stroke:none;" d="M170.89 0 L170.89 0 L168.39 -2.5 L176.89 0 L168.39 2.5 L170.89 0 Z" transform="translate(523.25, 450.5) rotate(292.175)"/>
  </g>
  <g>
   <path style="fill:none;stroke:#161413; stroke-width:1; stroke-linecap:butt; stroke-linejoin:miter; stroke-dasharray:none;" d="M0.75 0 L0 183 L224.25 181.5 " transform="translate(231.5, 378.5)"/>
   <path style="fill:#161413; stroke:none;" d="M224.25 181.5 L224.25 181.5 L221.733 179.017 L230.25 181.46 L221.767 184.017 L224.25 181.5 Z" transform="translate(231.5, 378.5)"/>
  </g>
  <g>
   <path style="fill:none;stroke:#161413; stroke-width:1; stroke-linecap:butt; stroke-linejoin:miter; stroke-dasharray:none;" d="M0 0 L42.25 103.75 L197.25 102.75 " transform="translate(257.75, 376.25)"/>
   <path style="fill:#161413; stroke:none;" d="M197.25 102.75 L197.25 102.75 L194.734 100.266 L203.25 102.711 L194.766 105.266 L197.25 102.75 Z" transform="translate(257.75, 376.25)"/>
  </g>
  <g id="Copy of Group1 (14)" clip-path="url(#Clip14)">
   <path style="fill:none;stroke:#161413; stroke-width:1; stroke-linecap:butt; stroke-linejoin:miter; stroke-dasharray:none;" d="M99.5 31.875 C99.5 49.4797 77.2272 63.75 49.75 63.75 C22.2738 63.75 0 49.4797 0 31.875 C0 14.2709 22.2738 0 49.75 0 C77.2272 0 99.5 14.2709 99.5 31.875 Z" transform="translate(650.5, 70.5)"/>
   <g transform="translate(675.125, 96.5)">
    <use style="fill:#161413;stroke:none;" xlink:href="#GlArialMT109" transform="matrix(1.2 0 0 1.2 0 -3.40016)"/>
    <use style="fill:#161413;stroke:none;" xlink:href="#GlArialMT108" transform="matrix(1.2 0 0 1.2 9.99609 -3.40016)"/>
    <use style="fill:#161413;stroke:none;" xlink:href="#GlArialMT95" transform="matrix(1.2 0 0 1.2 12.6621 -3.40016)"/>
    <use style="fill:#161413;stroke:none;" xlink:href="#GlArialMT115" transform="matrix(1.2 0 0 1.2 19.3359 -3.40016)"/>
    <use style="fill:#161413;stroke:none;" xlink:href="#GlArialMT99" transform="matrix(1.2 0 0 1.2 25.3359 -3.40016)"/>
    <use style="fill:#161413;stroke:none;" xlink:href="#GlArialMT114" transform="matrix(1.2 0 0 1.2 31.3359 -3.40016)"/>
    <use style="fill:#161413;stroke:none;" xlink:href="#GlArialMT105" transform="matrix(1.2 0 0 1.2 35.332 -3.40016)"/>
    <use style="fill:#161413;stroke:none;" xlink:href="#GlArialMT112" transform="matrix(1.2 0 0 1.2 37.998 -3.40016)"/>
    <use style="fill:#161413;stroke:none;" xlink:href="#GlArialMT116" transform="matrix(1.2 0 0 1.2 44.6719 -3.40016)"/>
    <path style="fill:none; stroke:none;" d="M0 0 L51.875 0 L51.875 13.5 L0 13.5 L0 0 Z"/>
   </g>
  </g>
  <g>
   <path style="fill:none;stroke:#161413; stroke-width:1; stroke-linecap:butt; stroke-linejoin:miter; stroke-dasharray:none;" d="M0 217.734 L108.047 0 L551.484 0 " transform="translate(94.7656, 99.0625)"/>
   <path style="fill:#161413; stroke:none;" d="M551.484 0 L551.484 0 L548.984 -2.5 L557.484 0 L548.984 2.5 L551.484 0 Z" transform="translate(94.7656, 99.0625)"/>
  </g>
  <g>
   <path style="fill:none;stroke:#161413; stroke-width:1; stroke-linecap:butt; stroke-linejoin:miter; stroke-dasharray:none;" d="M0 0 L435.586 0 L510.82 207.422 " transform="translate(750.664, 100.938)"/>
   <path style="fill:#161413; stroke:none;" d="M510.82 207.422 L510.82 207.422 L512.318 204.219 L512.866 213.062 L507.618 205.924 L510.82 207.422 Z" transform="translate(750.664, 100.938)"/>
  </g>
 </g>
</svg>
