<?xml version="1.0" encoding="UTF-8"?>
<svg width="574.5" height="72.67" version="1.1" viewBox="0 0 153.2 19.23" xmlns="http://www.w3.org/2000/svg" xmlns:cc="http://creativecommons.org/ns#" xmlns:dc="http://purl.org/dc/elements/1.1/" xmlns:rdf="http://www.w3.org/1999/02/22-rdf-syntax-ns#">
    <defs>
        <filter id="filter5099" x="-.04695" y="-.1259" width="1.094" height="1.252" color-interpolation-filters="sRGB">
            <feGaussianBlur stdDeviation="225.0075"/>
        </filter>
    </defs>
    <g transform="matrix(.0272 0 0 .03134 28.25 -11.66)">
        <path class="fil0" transform="matrix(.09 0 0 .09 -907.6 -145.5)" d="m-863.5 7837 1293 4224 11328-1150c-5347-538-9359-1646-12621-3074z" color="black" color-rendering="auto" fill="#1a1a1a" filter="url(#filter5099)" image-rendering="auto" opacity=".659" shape-rendering="auto" solid-color="black" style="isolation:auto;mix-blend-mode:normal"/>
        <path class="fil0" d="m-985.3 559.8 116.4 380.1 1019-103.5c-481.2-48.42-842.3-148.1-1136-276.7z" fill="#dededd" fill-rule="evenodd" image-rendering="optimizeQuality" shape-rendering="geometricPrecision" stroke-width=".09"/>
        <path class="fil1" transform="matrix(.09 0 0 .09 -907.6 -145.5)" d="m-354.5 7213 649 4273 11459-577c-5245-805-9074-2110-12108-3696z" color="black" color-rendering="auto" fill="#1a1a1a" filter="url(#filter5099)" image-rendering="auto" opacity=".659" shape-rendering="auto" solid-color="black" style="isolation:auto;mix-blend-mode:normal"/>
        <path class="fil1" d="m-939.5 503.6 58.41 384.6 1031-51.93c-472-72.45-816.6-189.9-1090-332.6z" fill="#aaa9a9" fill-rule="evenodd" image-rendering="optimizeQuality" shape-rendering="geometricPrecision" stroke-width=".09"/>
        <path class="fil2" transform="matrix(.09 0 0 .09 -907.6 -145.5)" d="m2904 8062c-386-183-757-370-1116-560l-913-508c-212-124-421-250-624-376v4288h11502c-3168-660-5762-1486-7940-2431z" color="black" color-rendering="auto" fill="#1a1a1a" filter="url(#filter5099)" image-rendering="auto" opacity=".659" shape-rendering="auto" solid-color="black" style="isolation:auto;mix-blend-mode:normal"/>
        <path class="fil2" d="m-646.3 580c-34.74-16.47-68.13-33.3-100.4-50.4l-82.17-45.72c-19.08-11.16-37.89-22.5-56.16-33.84v385.9h1035c-285.1-59.4-518.6-133.7-714.6-218.8z" fill="#1f1a17" fill-rule="evenodd" image-rendering="optimizeQuality" shape-rendering="geometricPrecision" stroke-width=".09"/>
    </g>
    <g transform="translate(-.08938 -277.4)" fill="#077cff" aria-label="db">
        <path d="m13 291.3c1.239 0 2.108-0.4622 2.755-1.442v1.017h2.588v-13.48h-2.588v4.789c-0.6471-0.9984-1.516-1.461-2.755-1.461-2.385 0-4.197 2.293-4.197 5.306 0 2.921 1.682 5.269 4.197 5.269zm0.5732-8.412c1.313 0 2.182 1.276 2.182 3.18 0 1.812-0.8875 3.069-2.182 3.069s-2.182-1.276-2.182-3.106c0-1.849 0.8875-3.143 2.182-3.143z"/>
        <path d="m26.09 280.7c-1.239 0-2.126 0.4622-2.755 1.461v-4.789h-2.588v13.48h2.588v-1.017c0.6286 0.9799 1.498 1.442 2.755 1.442 2.385 0 4.197-2.274 4.197-5.288 0-3.125-1.83-5.288-4.197-5.288zm-0.5732 2.163c1.276 0 2.182 1.294 2.182 3.143 0 1.812-0.906 3.106-2.182 3.106-1.313 0-2.182-1.257-2.182-3.162 0-1.812 0.8875-3.088 2.182-3.088z"/>
    </g>
    <g transform="translate(-.08938 -277.4)" aria-label="CdE-Datenbank">
        <path d="m44.72 283.1h2.288c-0.208-2.624-2.144-4.144-4.864-4.144-3.296 0-5.344 2.352-5.344 6.128 0 3.744 2.032 6.096 5.28 6.096 2.896 0 4.832-1.68 4.976-4.352h-2.336c-0.144 1.488-1.088 2.336-2.576 2.336-1.856 0-2.944-1.504-2.944-4.048 0-2.576 1.136-4.112 3.024-4.112 2 0 2.368 1.504 2.496 2.096z"/>
        <path d="m51.7 291.2c1.072 0 1.824-0.4 2.384-1.248v0.88h2.24v-11.66h-2.24v4.144c-0.56-0.864-1.312-1.264-2.384-1.264-2.064 0-3.632 1.984-3.632 4.592 0 2.528 1.456 4.56 3.632 4.56zm0.496-7.28c1.136 0 1.888 1.104 1.888 2.752 0 1.568-0.768 2.656-1.888 2.656s-1.888-1.104-1.888-2.688c0-1.6 0.768-2.72 1.888-2.72z"/>
        <path d="m60.78 285.8h5.584v-2h-5.584v-2.64h6.032v-2h-8.432v11.66h8.72v-2h-6.32z"/>
        <path d="m72.22 285.3h-4.352v2.16h4.352z"/>
        <path d="m73.81 290.8h4.56c1.776 0 2.896-0.416 3.68-1.36 0.928-1.088 1.424-2.672 1.424-4.48 0-1.792-0.496-3.376-1.424-4.48-0.784-0.944-1.888-1.344-3.68-1.344h-4.56zm2.4-2v-7.664h2.16c1.808 0 2.704 1.264 2.704 3.84 0 2.56-0.896 3.824-2.704 3.824z"/>
        <path d="m87.12 291.2c0.96 0 1.84-0.416 2.624-1.232 0 0.448 0.048 0.608 0.256 0.864h2.432v-0.272c-0.4-0.368-0.512-0.608-0.512-1.056v-4.8c0-1.76-1.2-2.656-3.536-2.656s-3.552 0.992-3.696 2.992h2.16c0.112-0.896 0.48-1.184 1.584-1.184 0.864 0 1.296 0.288 1.296 0.864 0 0.848-1.056 0.896-1.792 1.008l-0.896 0.16c-1.712 0.288-2.544 1.168-2.544 2.72s1.056 2.592 2.624 2.592zm2.608-3.84c0 1.296-0.64 2.032-1.776 2.032-0.752 0-1.216-0.4-1.216-1.04 0-0.672 0.352-0.992 1.28-1.184l0.768-0.144c0.592-0.112 0.688-0.144 0.944-0.272z"/>
        <path d="m97.58 282.3h-1.248v-2.32h-2.24v2.32h-1.104v1.488h1.104v5.312c0 1.36 0.72 2.032 2.192 2.032 0.496 0 0.896-0.048 1.296-0.176v-1.568c-0.224 0.032-0.352 0.048-0.512 0.048-0.592 0-0.736-0.176-0.736-0.944v-4.704h1.248z"/>
        <path d="m102.4 282c-2.48 0-4 1.792-4 4.688 0 2.768 1.504 4.464 3.952 4.464 1.936 0 3.504-1.104 4-2.8h-2.208c-0.272 0.688-0.896 1.088-1.712 1.088-1.504 0-1.744-1.104-1.792-2.272h5.792c0.016-0.192 0.016-0.272 0.016-0.384 0-3.824-2.32-4.784-4.048-4.784zm1.712 3.68h-3.44c0.144-1.312 0.704-1.968 1.696-1.968 1.04 0 1.648 0.704 1.744 1.968z"/>
        <path d="m107.9 282.2v8.64h2.24v-5.184c0-1.024 0.72-1.696 1.808-1.696 0.96 0 1.44 0.528 1.44 1.552v5.328h2.24v-5.792c0-1.904-1.056-2.992-2.896-2.992-1.168 0-1.952 0.432-2.592 1.392v-1.248z"/>
        <path d="m122.1 282c-1.072 0-1.84 0.4-2.384 1.264v-4.144h-2.24v11.66h2.24v-0.88c0.544 0.848 1.296 1.248 2.384 1.248 2.064 0 3.632-1.968 3.632-4.576 0-2.704-1.584-4.576-3.632-4.576zm-0.496 1.872c1.104 0 1.888 1.12 1.888 2.72 0 1.568-0.784 2.688-1.888 2.688-1.136 0-1.888-1.088-1.888-2.736 0-1.568 0.768-2.672 1.888-2.672z"/>
        <path d="m129.4 291.2c0.96 0 1.84-0.416 2.624-1.232 0 0.448 0.048 0.608 0.256 0.864h2.432v-0.272c-0.4-0.368-0.512-0.608-0.512-1.056v-4.8c0-1.76-1.2-2.656-3.536-2.656s-3.552 0.992-3.696 2.992h2.16c0.112-0.896 0.48-1.184 1.584-1.184 0.864 0 1.296 0.288 1.296 0.864 0 0.848-1.056 0.896-1.792 1.008l-0.896 0.16c-1.712 0.288-2.544 1.168-2.544 2.72s1.056 2.592 2.624 2.592zm2.608-3.84c0 1.296-0.64 2.032-1.776 2.032-0.752 0-1.216-0.4-1.216-1.04 0-0.672 0.352-0.992 1.28-1.184l0.768-0.144c0.592-0.112 0.688-0.144 0.944-0.272z"/>
        <path d="m135.9 282.2v8.64h2.24v-5.184c0-1.024 0.72-1.696 1.808-1.696 0.96 0 1.44 0.528 1.44 1.552v5.328h2.24v-5.792c0-1.904-1.056-2.992-2.896-2.992-1.168 0-1.952 0.432-2.592 1.392v-1.248z"/>
        <path d="m147.7 285.5v-6.384h-2.24v11.66h2.24v-2.832l0.896-0.976 2.064 3.808h2.624l-3.152-5.376 2.944-3.264h-2.544z"/>
    </g>
</svg>
